<svg viewBox="0 0 91 78" fill="none" xmlns="http://www.w3.org/2000/svg">
<g clip-path="url(#clip0_8625_191961)">
<path d="M0 6.83505C0 5.76089 0.87905 4.88184 1.95321 4.88184C3.02737 4.88184 3.90642 5.76089 3.90642 6.83505C3.90642 7.90921 3.02737 8.78826 1.95321 8.78826C0.87905 8.78826 0 7.91131 0 6.83505Z" fill="#FC002C"/>
<path d="M0 11.7193C0 10.6452 0.87905 9.76611 1.95321 9.76611C3.02737 9.76611 3.90642 10.6452 3.90642 11.7193C3.90642 12.7935 3.02737 13.6725 1.95321 13.6725C0.87905 13.6725 0 12.7935 0 11.7193Z" fill="#FC002C"/>
<path d="M0 16.6031C0 15.529 0.87905 14.6499 1.95321 14.6499C3.02737 14.6499 3.90642 15.529 3.90642 16.6031C3.90642 17.6773 3.02737 18.5563 1.95321 18.5563C0.87905 18.5563 0 17.6773 0 16.6031Z" fill="#FC002C"/>
<path d="M0 21.4854C0 20.4113 0.87905 19.5322 1.95321 19.5322C3.02737 19.5322 3.90642 20.4113 3.90642 21.4854C3.90642 22.5596 3.02737 23.4387 1.95321 23.4387C0.87905 23.4387 0 22.5596 0 21.4854Z" fill="#FC002C"/>
<path d="M0 50.7838C0 49.7096 0.87905 48.8306 1.95321 48.8306C3.02737 48.8306 3.90642 49.7096 3.90642 50.7838C3.90642 51.8579 3.02737 52.737 1.95321 52.737C0.87905 52.737 0 51.8579 0 50.7838Z" fill="#0F45DB"/>
<path d="M0 55.6656C0 54.5915 0.87905 53.7124 1.95321 53.7124C3.02737 53.7124 3.90642 54.5915 3.90642 55.6656C3.90642 56.7398 3.02737 57.6188 1.95321 57.6188C0.87905 57.6188 0 56.7398 0 55.6656Z" fill="#0F45DB"/>
<path d="M0 60.5499C0 59.4757 0.87905 58.5967 1.95321 58.5967C3.02737 58.5967 3.90642 59.4757 3.90642 60.5499C3.90642 61.6241 3.02737 62.5031 1.95321 62.5031C0.87905 62.5031 0 61.6241 0 60.5499Z" fill="#0F45DB"/>
<path d="M0 65.4342C0 64.36 0.87905 63.481 1.95321 63.481C3.02737 63.481 3.90642 64.36 3.90642 65.4342C3.90642 66.5083 3.02737 67.3874 1.95321 67.3874C0.87905 67.3874 0 66.5083 0 65.4342Z" fill="#0F45DB"/>
<path d="M0 70.3165C0 69.2423 0.87905 68.3633 1.95321 68.3633C3.02737 68.3633 3.90642 69.2423 3.90642 70.3165C3.90642 71.3907 3.02737 72.2697 1.95321 72.2697C0.87905 72.2697 0 71.3907 0 70.3165Z" fill="#0F45DB"/>
<path d="M0 75.1993C0 74.1251 0.87905 73.2461 1.95321 73.2461C3.02737 73.2461 3.90642 74.1251 3.90642 75.1993C3.90642 76.2735 3.02737 77.1525 1.95321 77.1525C0.87905 77.1525 0 76.2735 0 75.1993Z" fill="#0F45DB"/>
<path d="M4.88281 1.9537C4.88281 0.879539 5.76186 0.000488281 6.83602 0.000488281C7.91019 0.000488281 8.78924 0.879539 8.78924 1.9537C8.78924 3.02786 8.00879 3.90691 6.83602 3.90691C5.76186 3.90691 4.88281 3.02786 4.88281 1.9537Z" fill="#FC002C"/>
<path d="M4.88281 6.83505C4.88281 5.76089 5.76186 4.88184 6.83602 4.88184C7.91019 4.88184 8.78924 5.76089 8.78924 6.83505C8.78924 7.90921 8.00879 8.78826 6.83602 8.78826C5.76186 8.78826 4.88281 7.90921 4.88281 6.83505Z" fill="#FC002C"/>
<path d="M4.88281 11.7193C4.88281 10.6452 5.76186 9.76611 6.83602 9.76611C7.91019 9.76611 8.78924 10.6452 8.78924 11.7193C8.78924 12.7935 8.00879 13.6725 6.83602 13.6725C5.76186 13.6725 4.88281 12.7935 4.88281 11.7193Z" fill="#FC002C"/>
<path d="M4.88281 16.6031C4.88281 15.529 5.76186 14.6499 6.83602 14.6499C7.91019 14.6499 8.78924 15.529 8.78924 16.6031C8.78924 17.6773 8.00879 18.5563 6.83602 18.5563C5.76186 18.5563 4.88281 17.6773 4.88281 16.6031Z" fill="#FC002C"/>
<path d="M4.88281 21.4854C4.88281 20.4113 5.76186 19.5322 6.83602 19.5322C7.91019 19.5322 8.78924 20.4113 8.78924 21.4854C8.78924 22.5596 8.00879 23.4387 6.83602 23.4387C5.76186 23.4387 4.88281 22.5596 4.88281 21.4854Z" fill="#FC002C"/>
<path d="M4.88281 45.9015C4.88281 44.8273 5.76186 43.9482 6.83602 43.9482C7.91019 43.9482 8.78924 44.8273 8.78924 45.9015C8.78924 46.9756 8.00879 47.8547 6.83602 47.8547C5.76186 47.8547 4.88281 46.9756 4.88281 45.9015Z" fill="#0F45DB"/>
<path d="M4.88281 50.7838C4.88281 49.7096 5.76186 48.8306 6.83602 48.8306C7.91019 48.8306 8.78924 49.7096 8.78924 50.7838C8.78924 51.8579 8.00879 52.737 6.83602 52.737C5.76186 52.737 4.88281 51.8579 4.88281 50.7838Z" fill="#0F45DB"/>
<path d="M4.88281 55.6656C4.88281 54.5915 5.76186 53.7124 6.83602 53.7124C7.91019 53.7124 8.78924 54.5915 8.78924 55.6656C8.78924 56.7398 8.00879 57.6188 6.83602 57.6188C5.76186 57.6188 4.88281 56.7398 4.88281 55.6656Z" fill="#0F45DB"/>
<path d="M4.88281 60.5499C4.88281 59.4757 5.76186 58.5967 6.83602 58.5967C7.91019 58.5967 8.78924 59.4757 8.78924 60.5499C8.78924 61.6241 8.00879 62.5031 6.83602 62.5031C5.76186 62.5031 4.88281 61.6241 4.88281 60.5499Z" fill="#0F45DB"/>
<path d="M4.88281 65.4342C4.88281 64.36 5.76186 63.481 6.83602 63.481C7.91019 63.481 8.78924 64.36 8.78924 65.4342C8.78924 66.5083 8.00879 67.3874 6.83602 67.3874C5.76186 67.3874 4.88281 66.5083 4.88281 65.4342Z" fill="#0F45DB"/>
<path d="M4.88281 70.3165C4.88281 69.2423 5.76186 68.3633 6.83602 68.3633C7.91019 68.3633 8.78924 69.2423 8.78924 70.3165C8.78924 71.3907 8.00879 72.2697 6.83602 72.2697C5.76186 72.2697 4.88281 71.3907 4.88281 70.3165Z" fill="#0F45DB"/>
<path d="M4.88281 75.1993C4.88281 74.1251 5.76186 73.2461 6.83602 73.2461C7.91019 73.2461 8.78924 74.1251 8.78924 75.1993C8.78924 76.2735 8.00879 77.1525 6.83602 77.1525C5.76186 77.1525 4.88281 76.2735 4.88281 75.1993Z" fill="#0F45DB"/>
<path d="M9.76562 1.9537C9.76562 0.879539 10.6447 0.000488281 11.7188 0.000488281C12.793 0.000488281 13.672 0.879539 13.672 1.9537C13.672 3.02786 12.8916 3.90691 11.7188 3.90691C10.6447 3.90691 9.76562 3.02786 9.76562 1.9537Z" fill="#FC002C"/>
<path d="M9.76562 6.83505C9.76562 5.76089 10.6447 4.88184 11.7188 4.88184C12.793 4.88184 13.672 5.76089 13.672 6.83505C13.672 7.90921 12.8916 8.78826 11.7188 8.78826C10.6447 8.78826 9.76562 7.90921 9.76562 6.83505Z" fill="#FC002C"/>
<path d="M9.76562 11.7193C9.76562 10.6452 10.6447 9.76611 11.7188 9.76611C12.793 9.76611 13.672 10.6452 13.672 11.7193C13.672 12.7935 12.8916 13.6725 11.7188 13.6725C10.6447 13.6725 9.76562 12.7935 9.76562 11.7193Z" fill="#FC002C"/>
<path d="M9.76562 16.6031C9.76562 15.529 10.6447 14.6499 11.7188 14.6499C12.793 14.6499 13.672 15.529 13.672 16.6031C13.672 17.6773 12.8916 18.5563 11.7188 18.5563C10.6447 18.5563 9.76562 17.6773 9.76562 16.6031Z" fill="#FC002C"/>
<path d="M9.76562 21.4854C9.76562 20.4113 10.6447 19.5322 11.7188 19.5322C12.793 19.5322 13.672 20.4113 13.672 21.4854C13.672 22.5596 12.8916 23.4387 11.7188 23.4387C10.6447 23.4387 9.76562 22.5596 9.76562 21.4854Z" fill="#FC002C"/>
<path d="M9.76562 41.0172C9.76562 39.943 10.6447 39.064 11.7188 39.064C12.793 39.064 13.672 39.943 13.672 41.0172C13.672 42.0913 12.8916 42.9704 11.7188 42.9704C10.6447 42.9704 9.76562 42.0913 9.76562 41.0172Z" fill="#0F45DB"/>
<path d="M9.76562 45.9015C9.76562 44.8273 10.6447 43.9482 11.7188 43.9482C12.793 43.9482 13.672 44.8273 13.672 45.9015C13.672 46.9756 12.8916 47.8547 11.7188 47.8547C10.6447 47.8547 9.76562 46.9756 9.76562 45.9015Z" fill="#0F45DB"/>
<path d="M9.76562 50.7838C9.76562 49.7096 10.6447 48.8306 11.7188 48.8306C12.793 48.8306 13.672 49.7096 13.672 50.7838C13.672 51.8579 12.8916 52.737 11.7188 52.737C10.6447 52.737 9.76562 51.8579 9.76562 50.7838Z" fill="#0F45DB"/>
<path d="M9.76562 55.6656C9.76562 54.5915 10.6447 53.7124 11.7188 53.7124C12.793 53.7124 13.672 54.5915 13.672 55.6656C13.672 56.7398 12.8916 57.6188 11.7188 57.6188C10.6447 57.6188 9.76562 56.7398 9.76562 55.6656Z" fill="#0F45DB"/>
<path d="M9.76562 60.5499C9.76562 59.4757 10.6447 58.5967 11.7188 58.5967C12.793 58.5967 13.672 59.4757 13.672 60.5499C13.672 61.6241 12.8916 62.5031 11.7188 62.5031C10.6447 62.5031 9.76562 61.6241 9.76562 60.5499Z" fill="#0F45DB"/>
<path d="M9.76562 65.4342C9.76562 64.36 10.6447 63.481 11.7188 63.481C12.793 63.481 13.672 64.36 13.672 65.4342C13.672 66.5083 12.8916 67.3874 11.7188 67.3874C10.6447 67.3874 9.76562 66.5083 9.76562 65.4342Z" fill="#FC002C"/>
<path d="M9.76562 70.3165C9.76562 69.2423 10.6447 68.3633 11.7188 68.3633C12.793 68.3633 13.672 69.2423 13.672 70.3165C13.672 71.3907 12.8916 72.2697 11.7188 72.2697C10.6447 72.2697 9.76562 71.3907 9.76562 70.3165Z" fill="#FC002C"/>
<path d="M9.76562 75.1993C9.76562 74.1251 10.6447 73.2461 11.7188 73.2461C12.793 73.2461 13.672 74.1251 13.672 75.1993C13.672 76.2735 12.8916 77.1525 11.7188 77.1525C10.6447 77.1525 9.76562 76.2735 9.76562 75.1993Z" fill="#FC002C"/>
<path d="M14.6484 1.9537C14.6484 0.879539 15.5275 0.000488281 16.6016 0.000488281C17.6758 0.000488281 18.5549 0.879539 18.5549 1.9537C18.5549 3.02786 17.7744 3.90691 16.6016 3.90691C15.5275 3.90691 14.6484 3.02786 14.6484 1.9537Z" fill="#FC002C"/>
<path d="M14.6484 6.83505C14.6484 5.76089 15.5275 4.88184 16.6016 4.88184C17.6758 4.88184 18.5549 5.76089 18.5549 6.83505C18.5549 7.90921 17.7744 8.78826 16.6016 8.78826C15.5275 8.78826 14.6484 7.90921 14.6484 6.83505Z" fill="#FC002C"/>
<path d="M14.6484 11.7193C14.6484 10.6452 15.5275 9.76611 16.6016 9.76611C17.6758 9.76611 18.5549 10.6452 18.5549 11.7193C18.5549 12.7935 17.7744 13.6725 16.6016 13.6725C15.5275 13.6725 14.6484 12.7935 14.6484 11.7193Z" fill="#FC002C"/>
<path d="M14.6484 16.6031C14.6484 15.529 15.5275 14.6499 16.6016 14.6499C17.6758 14.6499 18.5549 15.529 18.5549 16.6031C18.5549 17.6773 17.7744 18.5563 16.6016 18.5563C15.5275 18.5563 14.6484 17.6773 14.6484 16.6031Z" fill="#FC002C"/>
<path d="M14.6484 21.4854C14.6484 20.4113 15.5275 19.5322 16.6016 19.5322C17.6758 19.5322 18.5549 20.4113 18.5549 21.4854C18.5549 22.5596 17.7744 23.4387 16.6016 23.4387C15.5275 23.4387 14.6484 22.5596 14.6484 21.4854Z" fill="#FC002C"/>
<path d="M14.6484 36.1358C14.6484 35.0617 15.5275 34.1826 16.6016 34.1826C17.6758 34.1826 18.5549 35.0617 18.5549 36.1358C18.5549 37.21 17.7744 38.089 16.6016 38.089C15.5275 38.089 14.6484 37.21 14.6484 36.1358Z" fill="#0F45DB"/>
<path d="M14.6484 41.0172C14.6484 39.943 15.5275 39.064 16.6016 39.064C17.6758 39.064 18.5549 39.943 18.5549 41.0172C18.5549 42.0913 17.7744 42.9704 16.6016 42.9704C15.5275 42.9704 14.6484 42.0913 14.6484 41.0172Z" fill="#0F45DB"/>
<path d="M14.6484 45.9015C14.6484 44.8273 15.5275 43.9482 16.6016 43.9482C17.6758 43.9482 18.5549 44.8273 18.5549 45.9015C18.5549 46.9756 17.7744 47.8547 16.6016 47.8547C15.5275 47.8547 14.6484 46.9756 14.6484 45.9015Z" fill="#0F45DB"/>
<path d="M14.6484 50.7838C14.6484 49.7096 15.5275 48.8306 16.6016 48.8306C17.6758 48.8306 18.5549 49.7096 18.5549 50.7838C18.5549 51.8579 17.7744 52.737 16.6016 52.737C15.5275 52.737 14.6484 51.8579 14.6484 50.7838Z" fill="#0F45DB"/>
<path d="M14.6484 55.6656C14.6484 54.5915 15.5275 53.7124 16.6016 53.7124C17.6758 53.7124 18.5549 54.5915 18.5549 55.6656C18.5549 56.7398 17.7744 57.6188 16.6016 57.6188C15.5275 57.6188 14.6484 56.7398 14.6484 55.6656Z" fill="#0F45DB"/>
<path d="M14.6484 60.5499C14.6484 59.4757 15.5275 58.5967 16.6016 58.5967C17.6758 58.5967 18.5549 59.4757 18.5549 60.5499C18.5549 61.6241 17.7744 62.5031 16.6016 62.5031C15.5275 62.5031 14.6484 61.6241 14.6484 60.5499Z" fill="#0F45DB"/>
<path d="M14.6484 65.4342C14.6484 64.36 15.5275 63.481 16.6016 63.481C17.6758 63.481 18.5549 64.36 18.5549 65.4342C18.5549 66.5083 17.7744 67.3874 16.6016 67.3874C15.5275 67.3874 14.6484 66.5083 14.6484 65.4342Z" fill="#FC002C"/>
<path d="M14.6484 70.3165C14.6484 69.2423 15.5275 68.3633 16.6016 68.3633C17.6758 68.3633 18.5549 69.2423 18.5549 70.3165C18.5549 71.3907 17.7744 72.2697 16.6016 72.2697C15.5275 72.2697 14.6484 71.3907 14.6484 70.3165Z" fill="#FC002C"/>
<path d="M14.6484 75.1993C14.6484 74.1251 15.5275 73.2461 16.6016 73.2461C17.6758 73.2461 18.5549 74.1251 18.5549 75.1993C18.5549 76.2735 17.7744 77.1525 16.6016 77.1525C15.5275 77.1525 14.6484 76.2735 14.6484 75.1993Z" fill="#FC002C"/>
<path d="M19.5391 1.9537C19.5391 0.879539 20.4181 0.000488281 21.4923 0.000488281C22.5664 0.000488281 23.4455 0.879539 23.4455 1.9537C23.4455 3.02786 22.665 3.90691 21.4923 3.90691C20.4181 3.90691 19.5391 3.02786 19.5391 1.9537Z" fill="#FC002C"/>
<path d="M19.5391 6.83505C19.5391 5.76089 20.4181 4.88184 21.4923 4.88184C22.5664 4.88184 23.4455 5.76089 23.4455 6.83505C23.4455 7.90921 22.665 8.78826 21.4923 8.78826C20.4181 8.78826 19.5391 7.90921 19.5391 6.83505Z" fill="#FC002C"/>
<path d="M19.5391 11.7193C19.5391 10.6452 20.4181 9.76611 21.4923 9.76611C22.5664 9.76611 23.4455 10.6452 23.4455 11.7193C23.4455 12.7935 22.665 13.6725 21.4923 13.6725C20.4181 13.6725 19.5391 12.7935 19.5391 11.7193Z" fill="#FC002C"/>
<path d="M19.5391 16.6031C19.5391 15.529 20.4181 14.6499 21.4923 14.6499C22.5664 14.6499 23.4455 15.529 23.4455 16.6031C23.4455 17.6773 22.665 18.5563 21.4923 18.5563C20.4181 18.5563 19.5391 17.6773 19.5391 16.6031Z" fill="#FC002C"/>
<path d="M19.5391 31.252C19.5391 30.1779 20.4181 29.2988 21.4923 29.2988C22.5664 29.2988 23.4455 30.1779 23.4455 31.252C23.4455 32.3262 22.665 33.2053 21.4923 33.2053C20.4181 33.2053 19.5391 32.3262 19.5391 31.252Z" fill="#0F45DB"/>
<path d="M19.5391 36.1358C19.5391 35.0617 20.4181 34.1826 21.4923 34.1826C22.5664 34.1826 23.4455 35.0617 23.4455 36.1358C23.4455 37.21 22.665 38.089 21.4923 38.089C20.4181 38.089 19.5391 37.21 19.5391 36.1358Z" fill="#0F45DB"/>
<path d="M19.5391 41.0172C19.5391 39.943 20.4181 39.064 21.4923 39.064C22.5664 39.064 23.4455 39.943 23.4455 41.0172C23.4455 42.0913 22.665 42.9704 21.4923 42.9704C20.4181 42.9704 19.5391 42.0913 19.5391 41.0172Z" fill="#0F45DB"/>
<path d="M19.5391 45.9015C19.5391 44.8273 20.4181 43.9482 21.4923 43.9482C22.5664 43.9482 23.4455 44.8273 23.4455 45.9015C23.4455 46.9756 22.665 47.8547 21.4923 47.8547C20.4181 47.8547 19.5391 46.9756 19.5391 45.9015Z" fill="#0F45DB"/>
<path d="M19.5391 50.7838C19.5391 49.7096 20.4181 48.8306 21.4923 48.8306C22.5664 48.8306 23.4455 49.7096 23.4455 50.7838C23.4455 51.8579 22.665 52.737 21.4923 52.737C20.4181 52.737 19.5391 51.8579 19.5391 50.7838Z" fill="#0F45DB"/>
<path d="M19.5391 60.5499C19.5391 59.4757 20.4181 58.5967 21.4923 58.5967C22.5664 58.5967 23.4455 59.4757 23.4455 60.5499C23.4455 61.6241 22.665 62.5031 21.4923 62.5031C20.4181 62.5031 19.5391 61.6241 19.5391 60.5499Z" fill="#0F45DB"/>
<path d="M19.5391 65.4342C19.5391 64.36 20.4181 63.481 21.4923 63.481C22.5664 63.481 23.4455 64.36 23.4455 65.4342C23.4455 66.5083 22.665 67.3874 21.4923 67.3874C20.4181 67.3874 19.5391 66.5083 19.5391 65.4342Z" fill="#0F45DB"/>
<path d="M19.5391 70.3165C19.5391 69.2423 20.4181 68.3633 21.4923 68.3633C22.5664 68.3633 23.4455 69.2423 23.4455 70.3165C23.4455 71.3907 22.665 72.2697 21.4923 72.2697C20.4181 72.2697 19.5391 71.3907 19.5391 70.3165Z" fill="#0F45DB"/>
<path d="M19.5391 75.1993C19.5391 74.1251 20.4181 73.2461 21.4923 73.2461C22.5664 73.2461 23.4455 74.1251 23.4455 75.1993C23.4455 76.2735 22.665 77.1525 21.4923 77.1525C20.4181 77.1525 19.5391 76.2735 19.5391 75.1993Z" fill="#0F45DB"/>
<path d="M24.4219 1.9537C24.4219 0.879539 25.3009 0.000488281 26.3751 0.000488281C27.4492 0.000488281 28.3283 0.879539 28.3283 1.9537C28.3283 3.02786 27.5479 3.90691 26.3751 3.90691C25.3009 3.90691 24.4219 3.02786 24.4219 1.9537Z" fill="#FC002C"/>
<path d="M24.4219 6.83505C24.4219 5.76089 25.3009 4.88184 26.3751 4.88184C27.4492 4.88184 28.3283 5.76089 28.3283 6.83505C28.3283 7.90921 27.5479 8.78826 26.3751 8.78826C25.3009 8.78826 24.4219 7.90921 24.4219 6.83505Z" fill="#FC002C"/>
<path d="M24.4219 11.7193C24.4219 10.6452 25.3009 9.76611 26.3751 9.76611C27.4492 9.76611 28.3283 10.6452 28.3283 11.7193C28.3283 12.7935 27.5479 13.6725 26.3751 13.6725C25.3009 13.6725 24.4219 12.7935 24.4219 11.7193Z" fill="#FC002C"/>
<path d="M24.4219 16.6031C24.4219 15.529 25.3009 14.6499 26.3751 14.6499C27.4492 14.6499 28.3283 15.529 28.3283 16.6031C28.3283 17.6773 27.5479 18.5563 26.3751 18.5563C25.3009 18.5563 24.4219 17.6773 24.4219 16.6031Z" fill="#FC002C"/>
<path d="M24.4219 21.4854C24.4219 20.4113 25.3009 19.5322 26.3751 19.5322C27.4492 19.5322 28.3283 20.4113 28.3283 21.4854C28.3283 22.5596 27.5479 23.4387 26.3751 23.4387C25.3009 23.4387 24.4219 22.5596 24.4219 21.4854Z" fill="#FC002C"/>
<path d="M24.4219 26.3702C24.4219 25.296 25.3009 24.417 26.3751 24.417C27.4492 24.417 28.3283 25.296 28.3283 26.3702C28.3283 27.4444 27.5479 28.3234 26.3751 28.3234C25.3009 28.3234 24.4219 27.4444 24.4219 26.3702Z" fill="#0F45DB"/>
<path d="M24.4219 31.252C24.4219 30.1779 25.3009 29.2988 26.3751 29.2988C27.4492 29.2988 28.3283 30.1779 28.3283 31.252C28.3283 32.3262 27.5479 33.2053 26.3751 33.2053C25.3009 33.2053 24.4219 32.3262 24.4219 31.252Z" fill="#0F45DB"/>
<path d="M24.4219 36.1358C24.4219 35.0617 25.3009 34.1826 26.3751 34.1826C27.4492 34.1826 28.3283 35.0617 28.3283 36.1358C28.3283 37.21 27.5479 38.089 26.3751 38.089C25.3009 38.089 24.4219 37.21 24.4219 36.1358Z" fill="#0F45DB"/>
<path d="M24.4219 41.0172C24.4219 39.943 25.3009 39.064 26.3751 39.064C27.4492 39.064 28.3283 39.943 28.3283 41.0172C28.3283 42.0913 27.5479 42.9704 26.3751 42.9704C25.3009 42.9704 24.4219 42.0913 24.4219 41.0172Z" fill="#0F45DB"/>
<path d="M24.4219 45.9015C24.4219 44.8273 25.3009 43.9482 26.3751 43.9482C27.4492 43.9482 28.3283 44.8273 28.3283 45.9015C28.3283 46.9756 27.5479 47.8547 26.3751 47.8547C25.3009 47.8547 24.4219 46.9756 24.4219 45.9015Z" fill="#0F45DB"/>
<path d="M24.4219 60.5499C24.4219 59.4757 25.3009 58.5967 26.3751 58.5967C27.4492 58.5967 28.3283 59.4757 28.3283 60.5499C28.3283 61.6241 27.5479 62.5031 26.3751 62.5031C25.3009 62.5031 24.4219 61.6241 24.4219 60.5499Z" fill="#FC002C"/>
<path d="M24.4219 65.4342C24.4219 64.36 25.3009 63.481 26.3751 63.481C27.4492 63.481 28.3283 64.36 28.3283 65.4342C28.3283 66.5083 27.5479 67.3874 26.3751 67.3874C25.3009 67.3874 24.4219 66.5083 24.4219 65.4342Z" fill="#FC002C"/>
<path d="M24.4219 70.3165C24.4219 69.2423 25.3009 68.3633 26.3751 68.3633C27.4492 68.3633 28.3283 69.2423 28.3283 70.3165C28.3283 71.3907 27.5479 72.2697 26.3751 72.2697C25.3009 72.2697 24.4219 71.3907 24.4219 70.3165Z" fill="#FC002C"/>
<path d="M24.4219 75.1993C24.4219 74.1251 25.3009 73.2461 26.3751 73.2461C27.4492 73.2461 28.3283 74.1251 28.3283 75.1993C28.3283 76.2735 27.5479 77.1525 26.3751 77.1525C25.3009 77.1525 24.4219 76.2735 24.4219 75.1993Z" fill="#0F45DB"/>
<path d="M29.3047 1.9537C29.3047 0.879539 30.1837 0.000488281 31.2579 0.000488281C32.3321 0.000488281 33.2111 0.879539 33.2111 1.9537C33.2111 3.02786 32.4307 3.90691 31.2579 3.90691C30.1837 3.90691 29.3047 3.02786 29.3047 1.9537Z" fill="#0F45DB"/>
<path d="M29.3047 6.83505C29.3047 5.76089 30.1837 4.88184 31.2579 4.88184C32.3321 4.88184 33.2111 5.76089 33.2111 6.83505C33.2111 7.90921 32.4307 8.78826 31.2579 8.78826C30.1837 8.78826 29.3047 7.90921 29.3047 6.83505Z" fill="#0F45DB"/>
<path d="M29.3047 11.7193C29.3047 10.6452 30.1837 9.76611 31.2579 9.76611C32.3321 9.76611 33.2111 10.6452 33.2111 11.7193C33.2111 12.7935 32.4307 13.6725 31.2579 13.6725C30.1837 13.6725 29.3047 12.7935 29.3047 11.7193Z" fill="#0F45DB"/>
<path d="M29.3047 16.6031C29.3047 15.529 30.1837 14.6499 31.2579 14.6499C32.3321 14.6499 33.2111 15.529 33.2111 16.6031C33.2111 17.6773 32.4307 18.5563 31.2579 18.5563C30.1837 18.5563 29.3047 17.6773 29.3047 16.6031Z" fill="#0F45DB"/>
<path d="M29.3047 21.4854C29.3047 20.4113 30.1837 19.5322 31.2579 19.5322C32.3321 19.5322 33.2111 20.4113 33.2111 21.4854C33.2111 22.5596 32.4307 23.4387 31.2579 23.4387C30.1837 23.4387 29.3047 22.5596 29.3047 21.4854Z" fill="#0F45DB"/>
<path d="M29.3047 26.3702C29.3047 25.296 30.1837 24.417 31.2579 24.417C32.3321 24.417 33.2111 25.296 33.2111 26.3702C33.2111 27.4444 32.4307 28.3234 31.2579 28.3234C30.1837 28.3234 29.3047 27.4444 29.3047 26.3702Z" fill="#0F45DB"/>
<path d="M29.3047 31.252C29.3047 30.1779 30.1837 29.2988 31.2579 29.2988C32.3321 29.2988 33.2111 30.1779 33.2111 31.252C33.2111 32.3262 32.4307 33.2053 31.2579 33.2053C30.1837 33.2053 29.3047 32.3262 29.3047 31.252Z" fill="#0F45DB"/>
<path d="M29.3047 36.1358C29.3047 35.0617 30.1837 34.1826 31.2579 34.1826C32.3321 34.1826 33.2111 35.0617 33.2111 36.1358C33.2111 37.21 32.4307 38.089 31.2579 38.089C30.1837 38.089 29.3047 37.21 29.3047 36.1358Z" fill="#0F45DB"/>
<path d="M29.3047 41.0172C29.3047 39.943 30.1837 39.064 31.2579 39.064C32.3321 39.064 33.2111 39.943 33.2111 41.0172C33.2111 42.0913 32.4307 42.9704 31.2579 42.9704C30.1837 42.9704 29.3047 42.0913 29.3047 41.0172Z" fill="#0F45DB"/>
<path d="M29.3047 60.5499C29.3047 59.4757 30.1837 58.5967 31.2579 58.5967C32.3321 58.5967 33.2111 59.4757 33.2111 60.5499C33.2111 61.6241 32.4307 62.5031 31.2579 62.5031C30.1837 62.5031 29.3047 61.6241 29.3047 60.5499Z" fill="#FC002C"/>
<path d="M29.3047 65.4342C29.3047 64.36 30.1837 63.481 31.2579 63.481C32.3321 63.481 33.2111 64.36 33.2111 65.4342C33.2111 66.5083 32.4307 67.3874 31.2579 67.3874C30.1837 67.3874 29.3047 66.5083 29.3047 65.4342Z" fill="#FC002C"/>
<path d="M29.3047 70.3165C29.3047 69.2423 30.1837 68.3633 31.2579 68.3633C32.3321 68.3633 33.2111 69.2423 33.2111 70.3165C33.2111 71.3907 32.4307 72.2697 31.2579 72.2697C30.1837 72.2697 29.3047 71.3907 29.3047 70.3165Z" fill="#FC002C"/>
<path d="M29.3047 75.1993C29.3047 74.1251 30.1837 73.2461 31.2579 73.2461C32.3321 73.2461 33.2111 74.1251 33.2111 75.1993C33.2111 76.2735 32.4307 77.1525 31.2579 77.1525C30.1837 77.1525 29.3047 76.2735 29.3047 75.1993Z" fill="#0F45DB"/>
<path d="M34.1797 1.9537C34.1797 0.879539 35.0587 0.000488281 36.1329 0.000488281C37.2071 0.000488281 38.0861 0.879539 38.0861 1.9537C38.0861 3.02786 37.3057 3.90691 36.1329 3.90691C35.0587 3.90691 34.1797 3.02786 34.1797 1.9537Z" fill="#0F45DB"/>
<path d="M34.1797 6.83505C34.1797 5.76089 35.0587 4.88184 36.1329 4.88184C37.2071 4.88184 38.0861 5.76089 38.0861 6.83505C38.0861 7.90921 37.3057 8.78826 36.1329 8.78826C35.0587 8.78826 34.1797 7.90921 34.1797 6.83505Z" fill="#0F45DB"/>
<path d="M34.1797 11.7193C34.1797 10.6452 35.0587 9.76611 36.1329 9.76611C37.2071 9.76611 38.0861 10.6452 38.0861 11.7193C38.0861 12.7935 37.3057 13.6725 36.1329 13.6725C35.0587 13.6725 34.1797 12.7935 34.1797 11.7193Z" fill="#0F45DB"/>
<path d="M34.1797 16.6031C34.1797 15.529 35.0587 14.6499 36.1329 14.6499C37.2071 14.6499 38.0861 15.529 38.0861 16.6031C38.0861 17.6773 37.3057 18.5563 36.1329 18.5563C35.0587 18.5563 34.1797 17.6773 34.1797 16.6031Z" fill="#0F45DB"/>
<path d="M34.1797 21.4854C34.1797 20.4113 35.0587 19.5322 36.1329 19.5322C37.2071 19.5322 38.0861 20.4113 38.0861 21.4854C38.0861 22.5596 37.3057 23.4387 36.1329 23.4387C35.0587 23.4387 34.1797 22.5596 34.1797 21.4854Z" fill="#0F45DB"/>
<path d="M34.1797 26.3702C34.1797 25.296 35.0587 24.417 36.1329 24.417C37.2071 24.417 38.0861 25.296 38.0861 26.3702C38.0861 27.4444 37.3057 28.3234 36.1329 28.3234C35.0587 28.3234 34.1797 27.4444 34.1797 26.3702Z" fill="#0F45DB"/>
<path d="M34.1797 31.252C34.1797 30.1779 35.0587 29.2988 36.1329 29.2988C37.2071 29.2988 38.0861 30.1779 38.0861 31.252C38.0861 32.3262 37.3057 33.2053 36.1329 33.2053C35.0587 33.2053 34.1797 32.3262 34.1797 31.252Z" fill="#0F45DB"/>
<path d="M34.1797 36.1358C34.1797 35.0617 35.0587 34.1826 36.1329 34.1826C37.2071 34.1826 38.0861 35.0617 38.0861 36.1358C38.0861 37.21 37.3057 38.089 36.1329 38.089C35.0587 38.089 34.1797 37.21 34.1797 36.1358Z" fill="#0F45DB"/>
<path d="M34.1797 60.5499C34.1797 59.4757 35.0587 58.5967 36.1329 58.5967C37.2071 58.5967 38.0861 59.4757 38.0861 60.5499C38.0861 61.6241 37.3057 62.5031 36.1329 62.5031C35.0587 62.5031 34.1797 61.6241 34.1797 60.5499Z" fill="#0F45DB"/>
<path d="M34.1797 65.4342C34.1797 64.36 35.0587 63.481 36.1329 63.481C37.2071 63.481 38.0861 64.36 38.0861 65.4342C38.0861 66.5083 37.3057 67.3874 36.1329 67.3874C35.0587 67.3874 34.1797 66.5083 34.1797 65.4342Z" fill="#0F45DB"/>
<path d="M34.1797 70.3165C34.1797 69.2423 35.0587 68.3633 36.1329 68.3633C37.2071 68.3633 38.0861 69.2423 38.0861 70.3165C38.0861 71.3907 37.3057 72.2697 36.1329 72.2697C35.0587 72.2697 34.1797 71.3907 34.1797 70.3165Z" fill="#0F45DB"/>
<path d="M34.1797 75.1993C34.1797 74.1251 35.0587 73.2461 36.1329 73.2461C37.2071 73.2461 38.0861 74.1251 38.0861 75.1993C38.0861 76.2735 37.3057 77.1525 36.1329 77.1525C35.0587 77.1525 34.1797 76.2735 34.1797 75.1993Z" fill="#0F45DB"/>
<path d="M39.0703 6.83505C39.0703 5.76089 39.9494 4.88184 41.0235 4.88184C42.0977 4.88184 42.9767 5.76089 42.9767 6.83505C42.9767 7.90921 42.1963 8.78826 41.0235 8.78826C39.9494 8.78826 39.0703 7.90921 39.0703 6.83505Z" fill="#0F45DB"/>
<path d="M39.0703 11.7193C39.0703 10.6452 39.9494 9.76611 41.0235 9.76611C42.0977 9.76611 42.9767 10.6452 42.9767 11.7193C42.9767 12.7935 42.1963 13.6725 41.0235 13.6725C39.9494 13.6725 39.0703 12.7935 39.0703 11.7193Z" fill="#0F45DB"/>
<path d="M39.0703 16.6031C39.0703 15.529 39.9494 14.6499 41.0235 14.6499C42.0977 14.6499 42.9767 15.529 42.9767 16.6031C42.9767 17.6773 42.1963 18.5563 41.0235 18.5563C39.9494 18.5563 39.0703 17.6773 39.0703 16.6031Z" fill="#0F45DB"/>
<path d="M39.0703 21.4854C39.0703 20.4113 39.9494 19.5322 41.0235 19.5322C42.0977 19.5322 42.9767 20.4113 42.9767 21.4854C42.9767 22.5596 42.1963 23.4387 41.0235 23.4387C39.9494 23.4387 39.0703 22.5596 39.0703 21.4854Z" fill="#0F45DB"/>
<path d="M39.0703 26.3702C39.0703 25.296 39.9494 24.417 41.0235 24.417C42.0977 24.417 42.9767 25.296 42.9767 26.3702C42.9767 27.4444 42.1963 28.3234 41.0235 28.3234C39.9494 28.3234 39.0703 27.4444 39.0703 26.3702Z" fill="#0F45DB"/>
<path d="M39.0703 31.252C39.0703 30.1779 39.9494 29.2988 41.0235 29.2988C42.0977 29.2988 42.9767 30.1779 42.9767 31.252C42.9767 32.3262 42.1963 33.2053 41.0235 33.2053C39.9494 33.2053 39.0703 32.3262 39.0703 31.252Z" fill="#0F45DB"/>
<path d="M39.0703 60.5499C39.0703 59.4757 39.9494 58.5967 41.0235 58.5967C42.0977 58.5967 42.9767 59.4757 42.9767 60.5499C42.9767 61.6241 42.1963 62.5031 41.0235 62.5031C39.9494 62.5031 39.0703 61.6241 39.0703 60.5499Z" fill="#0F45DB"/>
<path d="M39.0703 65.4342C39.0703 64.36 39.9494 63.481 41.0235 63.481C42.0977 63.481 42.9767 64.36 42.9767 65.4342C42.9767 66.5083 42.1963 67.3874 41.0235 67.3874C39.9494 67.3874 39.0703 66.5083 39.0703 65.4342Z" fill="#0F45DB"/>
<path d="M39.0703 70.3165C39.0703 69.2423 39.9494 68.3633 41.0235 68.3633C42.0977 68.3633 42.9767 69.2423 42.9767 70.3165C42.9767 71.3907 42.1963 72.2697 41.0235 72.2697C39.9494 72.2697 39.0703 71.3907 39.0703 70.3165Z" fill="#0F45DB"/>
<path d="M39.0703 75.1993C39.0703 74.1251 39.9494 73.2461 41.0235 73.2461C42.0977 73.2461 42.9767 74.1251 42.9767 75.1993C42.9767 76.2735 42.1963 77.1525 41.0235 77.1525C39.9494 77.1525 39.0703 76.2735 39.0703 75.1993Z" fill="#0F45DB"/>
<path d="M47.3047 6.83505C47.3047 5.76089 48.1837 4.88184 49.2579 4.88184C50.3321 4.88184 51.2111 5.76089 51.2111 6.83505C51.2111 7.90921 50.3321 8.78826 49.2579 8.78826C48.1837 8.78826 47.3047 7.90921 47.3047 6.83505Z" fill="#0F45DB"/>
<path d="M47.3047 11.7193C47.3047 10.6452 48.1837 9.76611 49.2579 9.76611C50.3321 9.76611 51.2111 10.6452 51.2111 11.7193C51.2111 12.7935 50.3321 13.6725 49.2579 13.6725C48.1837 13.6725 47.3047 12.7935 47.3047 11.7193Z" fill="#0F45DB"/>
<path d="M47.3047 16.6031C47.3047 15.529 48.1837 14.6499 49.2579 14.6499C50.3321 14.6499 51.2111 15.529 51.2111 16.6031C51.2111 17.6773 50.3321 18.5563 49.2579 18.5563C48.1837 18.5563 47.3047 17.6773 47.3047 16.6031Z" fill="#0F45DB"/>
<path d="M47.3047 21.4854C47.3047 20.4113 48.1837 19.5322 49.2579 19.5322C50.3321 19.5322 51.2111 20.4113 51.2111 21.4854C51.2111 22.5596 50.3321 23.4387 49.2579 23.4387C48.1837 23.4387 47.3047 22.5596 47.3047 21.4854Z" fill="#0F45DB"/>
<path d="M47.3047 26.3702C47.3047 25.296 48.1837 24.417 49.2579 24.417C50.3321 24.417 51.2111 25.296 51.2111 26.3702C51.2111 27.4444 50.3321 28.3234 49.2579 28.3234C48.1837 28.3234 47.3047 27.4444 47.3047 26.3702Z" fill="#0F45DB"/>
<path d="M47.3047 31.252C47.3047 30.1779 48.1837 29.2988 49.2579 29.2988C50.3321 29.2988 51.2111 30.1779 51.2111 31.252C51.2111 32.3262 50.3321 33.2053 49.2579 33.2053C48.1837 33.2053 47.3047 32.3262 47.3047 31.252Z" fill="#FC002C"/>
<path d="M47.3047 36.1358C47.3047 35.0617 48.1837 34.1826 49.2579 34.1826C50.3321 34.1826 51.2111 35.0617 51.2111 36.1358C51.2111 37.21 50.3321 38.089 49.2579 38.089C48.1837 38.089 47.3047 37.21 47.3047 36.1358Z" fill="#FC002C"/>
<path d="M47.3047 41.0172C47.3047 39.943 48.1837 39.064 49.2579 39.064C50.3321 39.064 51.2111 39.943 51.2111 41.0172C51.2111 42.0913 50.3321 42.9704 49.2579 42.9704C48.1837 42.9704 47.3047 42.0913 47.3047 41.0172Z" fill="#FC002C"/>
<path d="M47.3047 45.9015C47.3047 44.8273 48.1837 43.9482 49.2579 43.9482C50.3321 43.9482 51.2111 44.8273 51.2111 45.9015C51.2111 46.9756 50.3321 47.8547 49.2579 47.8547C48.1837 47.8547 47.3047 46.9756 47.3047 45.9015Z" fill="#FC002C"/>
<path d="M47.3047 50.7838C47.3047 49.7096 48.1837 48.8306 49.2579 48.8306C50.3321 48.8306 51.2111 49.7096 51.2111 50.7838C51.2111 51.8579 50.3321 52.737 49.2579 52.737C48.1837 52.737 47.3047 51.8579 47.3047 50.7838Z" fill="#FC002C"/>
<path d="M47.3047 55.6656C47.3047 54.5915 48.1837 53.7124 49.2579 53.7124C50.3321 53.7124 51.2111 54.5915 51.2111 55.6656C51.2111 56.7398 50.3321 57.6188 49.2579 57.6188C48.1837 57.6188 47.3047 56.7398 47.3047 55.6656Z" fill="#FC002C"/>
<path d="M47.3047 60.5499C47.3047 59.4757 48.1837 58.5967 49.2579 58.5967C50.3321 58.5967 51.2111 59.4757 51.2111 60.5499C51.2111 61.6241 50.3321 62.5031 49.2579 62.5031C48.1837 62.5031 47.3047 61.6241 47.3047 60.5499Z" fill="#FC002C"/>
<path d="M47.3047 65.4342C47.3047 64.36 48.1837 63.481 49.2579 63.481C50.3321 63.481 51.2111 64.36 51.2111 65.4342C51.2111 66.5083 50.3321 67.3874 49.2579 67.3874C48.1837 67.3874 47.3047 66.5083 47.3047 65.4342Z" fill="#FC002C"/>
<path d="M47.3047 70.3165C47.3047 69.2423 48.1837 68.3633 49.2579 68.3633C50.3321 68.3633 51.2111 69.2423 51.2111 70.3165C51.2111 71.3907 50.3321 72.2697 49.2579 72.2697C48.1837 72.2697 47.3047 71.3907 47.3047 70.3165Z" fill="#FC002C"/>
<path d="M52.1953 1.9537C52.1953 0.879539 53.0744 0.000488281 54.1485 0.000488281C55.2227 0.000488281 56.1017 0.879539 56.1017 1.9537C56.1017 3.02786 55.3213 3.90691 54.1485 3.90691C53.0744 3.90691 52.1953 3.02786 52.1953 1.9537Z" fill="#0F45DB"/>
<path d="M52.1953 6.83505C52.1953 5.76089 53.0744 4.88184 54.1485 4.88184C55.2227 4.88184 56.1017 5.76089 56.1017 6.83505C56.1017 7.90921 55.3213 8.78826 54.1485 8.78826C53.0744 8.78826 52.1953 7.90921 52.1953 6.83505Z" fill="#0F45DB"/>
<path d="M52.1953 11.7193C52.1953 10.6452 53.0744 9.76611 54.1485 9.76611C55.2227 9.76611 56.1017 10.6452 56.1017 11.7193C56.1017 12.7935 55.3213 13.6725 54.1485 13.6725C53.0744 13.6725 52.1953 12.7935 52.1953 11.7193Z" fill="#0F45DB"/>
<path d="M52.1953 16.6031C52.1953 15.529 53.0744 14.6499 54.1485 14.6499C55.2227 14.6499 56.1017 15.529 56.1017 16.6031C56.1017 17.6773 55.3213 18.5563 54.1485 18.5563C53.0744 18.5563 52.1953 17.6773 52.1953 16.6031Z" fill="#0F45DB"/>
<path d="M52.1953 21.4854C52.1953 20.4113 53.0744 19.5322 54.1485 19.5322C55.2227 19.5322 56.1017 20.4113 56.1017 21.4854C56.1017 22.5596 55.3213 23.4387 54.1485 23.4387C53.0744 23.4387 52.1953 22.5596 52.1953 21.4854Z" fill="#0F45DB"/>
<path d="M52.1953 26.3702C52.1953 25.296 53.0744 24.417 54.1485 24.417C55.2227 24.417 56.1017 25.296 56.1017 26.3702C56.1017 27.4444 55.3213 28.3234 54.1485 28.3234C53.0744 28.3234 52.1953 27.4444 52.1953 26.3702Z" fill="#0F45DB"/>
<path d="M52.1953 31.252C52.1953 30.1779 53.0744 29.2988 54.1485 29.2988C55.2227 29.2988 56.1017 30.1779 56.1017 31.252C56.1017 32.3262 55.3213 33.2053 54.1485 33.2053C53.0744 33.2053 52.1953 32.3262 52.1953 31.252Z" fill="#FC002C"/>
<path d="M52.1953 36.1358C52.1953 35.0617 53.0744 34.1826 54.1485 34.1826C55.2227 34.1826 56.1017 35.0617 56.1017 36.1358C56.1017 37.21 55.3213 38.089 54.1485 38.089C53.0744 38.089 52.1953 37.21 52.1953 36.1358Z" fill="#FC002C"/>
<path d="M52.1953 41.0172C52.1953 39.943 53.0744 39.064 54.1485 39.064C55.2227 39.064 56.1017 39.943 56.1017 41.0172C56.1017 42.0913 55.3213 42.9704 54.1485 42.9704C53.0744 42.9704 52.1953 42.0913 52.1953 41.0172Z" fill="#FC002C"/>
<path d="M52.1953 45.9015C52.1953 44.8273 53.0744 43.9482 54.1485 43.9482C55.2227 43.9482 56.1017 44.8273 56.1017 45.9015C56.1017 46.9756 55.3213 47.8547 54.1485 47.8547C53.0744 47.8547 52.1953 46.9756 52.1953 45.9015Z" fill="#FC002C"/>
<path d="M52.1953 50.7838C52.1953 49.7096 53.0744 48.8306 54.1485 48.8306C55.2227 48.8306 56.1017 49.7096 56.1017 50.7838C56.1017 51.8579 55.3213 52.737 54.1485 52.737C53.0744 52.737 52.1953 51.8579 52.1953 50.7838Z" fill="#FC002C"/>
<path d="M52.1953 55.6656C52.1953 54.5915 53.0744 53.7124 54.1485 53.7124C55.2227 53.7124 56.1017 54.5915 56.1017 55.6656C56.1017 56.7398 55.3213 57.6188 54.1485 57.6188C53.0744 57.6188 52.1953 56.7398 52.1953 55.6656Z" fill="#FC002C"/>
<path d="M52.1953 60.5499C52.1953 59.4757 53.0744 58.5967 54.1485 58.5967C55.2227 58.5967 56.1017 59.4757 56.1017 60.5499C56.1017 61.6241 55.3213 62.5031 54.1485 62.5031C53.0744 62.5031 52.1953 61.6241 52.1953 60.5499Z" fill="#FC002C"/>
<path d="M52.1953 65.4342C52.1953 64.36 53.0744 63.481 54.1485 63.481C55.2227 63.481 56.1017 64.36 56.1017 65.4342C56.1017 66.5083 55.3213 67.3874 54.1485 67.3874C53.0744 67.3874 52.1953 66.5083 52.1953 65.4342Z" fill="#FC002C"/>
<path d="M52.1953 70.3165C52.1953 69.2423 53.0744 68.3633 54.1485 68.3633C55.2227 68.3633 56.1017 69.2423 56.1017 70.3165C56.1017 71.3907 55.3213 72.2697 54.1485 72.2697C53.0744 72.2697 52.1953 71.3907 52.1953 70.3165Z" fill="#FC002C"/>
<path d="M52.1953 75.1993C52.1953 74.1251 53.0744 73.2461 54.1485 73.2461C55.2227 73.2461 56.1017 74.1251 56.1017 75.1993C56.1017 76.2735 55.3213 77.1525 54.1485 77.1525C53.0744 77.1525 52.1953 76.2735 52.1953 75.1993Z" fill="#FC002C"/>
<path d="M57.0703 1.9537C57.0703 0.879539 57.9494 0.000488281 59.0235 0.000488281C60.0977 0.000488281 60.9767 0.879539 60.9767 1.9537C60.9767 3.02786 60.1963 3.90691 59.0235 3.90691C57.9494 3.90691 57.0703 3.02786 57.0703 1.9537Z" fill="#FC002C"/>
<path d="M57.0703 6.83505C57.0703 5.76089 57.9494 4.88184 59.0235 4.88184C60.0977 4.88184 60.9767 5.76089 60.9767 6.83505C60.9767 7.90921 60.1963 8.78826 59.0235 8.78826C57.9494 8.78826 57.0703 7.90921 57.0703 6.83505Z" fill="#FC002C"/>
<path d="M57.0703 11.7193C57.0703 10.6452 57.9494 9.76611 59.0235 9.76611C60.0977 9.76611 60.9767 10.6452 60.9767 11.7193C60.9767 12.7935 60.1963 13.6725 59.0235 13.6725C57.9494 13.6725 57.0703 12.7935 57.0703 11.7193Z" fill="#0F45DB"/>
<path d="M57.0703 16.6031C57.0703 15.529 57.9494 14.6499 59.0235 14.6499C60.0977 14.6499 60.9767 15.529 60.9767 16.6031C60.9767 17.6773 60.1963 18.5563 59.0235 18.5563C57.9494 18.5563 57.0703 17.6773 57.0703 16.6031Z" fill="#0F45DB"/>
<path d="M57.0703 21.4854C57.0703 20.4113 57.9494 19.5322 59.0235 19.5322C60.0977 19.5322 60.9767 20.4113 60.9767 21.4854C60.9767 22.5596 60.1963 23.4387 59.0235 23.4387C57.9494 23.4387 57.0703 22.5596 57.0703 21.4854Z" fill="#0F45DB"/>
<path d="M57.0703 26.3702C57.0703 25.296 57.9494 24.417 59.0235 24.417C60.0977 24.417 60.9767 25.296 60.9767 26.3702C60.9767 27.4444 60.1963 28.3234 59.0235 28.3234C57.9494 28.3234 57.0703 27.4444 57.0703 26.3702Z" fill="#0F45DB"/>
<path d="M57.0703 31.252C57.0703 30.1779 57.9494 29.2988 59.0235 29.2988C60.0977 29.2988 60.9767 30.1779 60.9767 31.252C60.9767 32.3262 60.1963 33.2053 59.0235 33.2053C57.9494 33.2053 57.0703 32.3262 57.0703 31.252Z" fill="#FC002C"/>
<path d="M57.0703 36.1358C57.0703 35.0617 57.9494 34.1826 59.0235 34.1826C60.0977 34.1826 60.9767 35.0617 60.9767 36.1358C60.9767 37.21 60.1963 38.089 59.0235 38.089C57.9494 38.089 57.0703 37.21 57.0703 36.1358Z" fill="#FC002C"/>
<path d="M57.0703 41.0172C57.0703 39.943 57.9494 39.064 59.0235 39.064C60.0977 39.064 60.9767 39.943 60.9767 41.0172C60.9767 42.0913 60.1963 42.9704 59.0235 42.9704C57.9494 42.9704 57.0703 42.0913 57.0703 41.0172Z" fill="#FC002C"/>
<path d="M57.0703 45.9015C57.0703 44.8273 57.9494 43.9482 59.0235 43.9482C60.0977 43.9482 60.9767 44.8273 60.9767 45.9015C60.9767 46.9756 60.1963 47.8547 59.0235 47.8547C57.9494 47.8547 57.0703 46.9756 57.0703 45.9015Z" fill="#FC002C"/>
<path d="M57.0703 50.7838C57.0703 49.7096 57.9494 48.8306 59.0235 48.8306C60.0977 48.8306 60.9767 49.7096 60.9767 50.7838C60.9767 51.8579 60.1963 52.737 59.0235 52.737C57.9494 52.737 57.0703 51.8579 57.0703 50.7838Z" fill="#FC002C"/>
<path d="M57.0703 55.6656C57.0703 54.5915 57.9494 53.7124 59.0235 53.7124C60.0977 53.7124 60.9767 54.5915 60.9767 55.6656C60.9767 56.7398 60.1963 57.6188 59.0235 57.6188C57.9494 57.6188 57.0703 56.7398 57.0703 55.6656Z" fill="#FC002C"/>
<path d="M57.0703 60.5499C57.0703 59.4757 57.9494 58.5967 59.0235 58.5967C60.0977 58.5967 60.9767 59.4757 60.9767 60.5499C60.9767 61.6241 60.1963 62.5031 59.0235 62.5031C57.9494 62.5031 57.0703 61.6241 57.0703 60.5499Z" fill="#FC002C"/>
<path d="M57.0703 65.4342C57.0703 64.36 57.9494 63.481 59.0235 63.481C60.0977 63.481 60.9767 64.36 60.9767 65.4342C60.9767 66.5083 60.1963 67.3874 59.0235 67.3874C57.9494 67.3874 57.0703 66.5083 57.0703 65.4342Z" fill="#FC002C"/>
<path d="M57.0703 70.3165C57.0703 69.2423 57.9494 68.3633 59.0235 68.3633C60.0977 68.3633 60.9767 69.2423 60.9767 70.3165C60.9767 71.3907 60.1963 72.2697 59.0235 72.2697C57.9494 72.2697 57.0703 71.3907 57.0703 70.3165Z" fill="#FC002C"/>
<path d="M57.0703 75.1993C57.0703 74.1251 57.9494 73.2461 59.0235 73.2461C60.0977 73.2461 60.9767 74.1251 60.9767 75.1993C60.9767 76.2735 60.1963 77.1525 59.0235 77.1525C57.9494 77.1525 57.0703 76.2735 57.0703 75.1993Z" fill="#FC002C"/>
<path d="M61.9609 1.9537C61.9609 0.879539 62.84 0.000488281 63.9141 0.000488281C64.9883 0.000488281 65.8674 0.879539 65.8674 1.9537C65.8674 3.02786 65.0869 3.90691 63.9141 3.90691C62.84 3.90691 61.9609 3.02786 61.9609 1.9537Z" fill="#FC002C"/>
<path d="M61.9609 6.83505C61.9609 5.76089 62.84 4.88184 63.9141 4.88184C64.9883 4.88184 65.8674 5.76089 65.8674 6.83505C65.8674 7.90921 65.0869 8.78826 63.9141 8.78826C62.84 8.78826 61.9609 7.90921 61.9609 6.83505Z" fill="#FC002C"/>
<path d="M61.9609 11.7193C61.9609 10.6452 62.84 9.76611 63.9141 9.76611C64.9883 9.76611 65.8674 10.6452 65.8674 11.7193C65.8674 12.7935 65.0869 13.6725 63.9141 13.6725C62.84 13.6725 61.9609 12.7935 61.9609 11.7193Z" fill="#0F45DB"/>
<path d="M61.9609 16.6031C61.9609 15.529 62.84 14.6499 63.9141 14.6499C64.9883 14.6499 65.8674 15.529 65.8674 16.6031C65.8674 17.6773 65.0869 18.5563 63.9141 18.5563C62.84 18.5563 61.9609 17.6773 61.9609 16.6031Z" fill="#0F45DB"/>
<path d="M61.9609 21.4854C61.9609 20.4113 62.84 19.5322 63.9141 19.5322C64.9883 19.5322 65.8674 20.4113 65.8674 21.4854C65.8674 22.5596 65.0869 23.4387 63.9141 23.4387C62.84 23.4387 61.9609 22.5596 61.9609 21.4854Z" fill="#0F45DB"/>
<path d="M61.9609 26.3702C61.9609 25.296 62.84 24.417 63.9141 24.417C64.9883 24.417 65.8674 25.296 65.8674 26.3702C65.8674 27.4444 65.0869 28.3234 63.9141 28.3234C62.84 28.3234 61.9609 27.4444 61.9609 26.3702Z" fill="#0F45DB"/>
<path d="M61.9609 31.252C61.9609 30.1779 62.84 29.2988 63.9141 29.2988C64.9883 29.2988 65.8674 30.1779 65.8674 31.252C65.8674 32.3262 65.0869 33.2053 63.9141 33.2053C62.84 33.2053 61.9609 32.3262 61.9609 31.252Z" fill="#FC002C"/>
<path d="M61.9609 36.1358C61.9609 35.0617 62.84 34.1826 63.9141 34.1826C64.9883 34.1826 65.8674 35.0617 65.8674 36.1358C65.8674 37.21 65.0869 38.089 63.9141 38.089C62.84 38.089 61.9609 37.21 61.9609 36.1358Z" fill="#FC002C"/>
<path d="M61.9609 41.0172C61.9609 39.943 62.84 39.064 63.9141 39.064C64.9883 39.064 65.8674 39.943 65.8674 41.0172C65.8674 42.0913 65.0869 42.9704 63.9141 42.9704C62.84 42.9704 61.9609 42.0913 61.9609 41.0172Z" fill="#FC002C"/>
<path d="M61.9609 45.9015C61.9609 44.8273 62.84 43.9482 63.9141 43.9482C64.9883 43.9482 65.8674 44.8273 65.8674 45.9015C65.8674 46.9756 65.0869 47.8547 63.9141 47.8547C62.84 47.8547 61.9609 46.9756 61.9609 45.9015Z" fill="#FC002C"/>
<path d="M61.9609 50.7838C61.9609 49.7096 62.84 48.8306 63.9141 48.8306C64.9883 48.8306 65.8674 49.7096 65.8674 50.7838C65.8674 51.8579 65.0869 52.737 63.9141 52.737C62.84 52.737 61.9609 51.8579 61.9609 50.7838Z" fill="#FC002C"/>
<path d="M61.9609 55.6656C61.9609 54.5915 62.84 53.7124 63.9141 53.7124C64.9883 53.7124 65.8674 54.5915 65.8674 55.6656C65.8674 56.7398 65.0869 57.6188 63.9141 57.6188C62.84 57.6188 61.9609 56.7398 61.9609 55.6656Z" fill="#FC002C"/>
<path d="M61.9609 60.5499C61.9609 59.4757 62.84 58.5967 63.9141 58.5967C64.9883 58.5967 65.8674 59.4757 65.8674 60.5499C65.8674 61.6241 65.0869 62.5031 63.9141 62.5031C62.84 62.5031 61.9609 61.6241 61.9609 60.5499Z" fill="#FC002C"/>
<path d="M61.9609 65.4342C61.9609 64.36 62.84 63.481 63.9141 63.481C64.9883 63.481 65.8674 64.36 65.8674 65.4342C65.8674 66.5083 65.0869 67.3874 63.9141 67.3874C62.84 67.3874 61.9609 66.5083 61.9609 65.4342Z" fill="#FC002C"/>
<path d="M61.9609 70.3165C61.9609 69.2423 62.84 68.3633 63.9141 68.3633C64.9883 68.3633 65.8674 69.2423 65.8674 70.3165C65.8674 71.3907 65.0869 72.2697 63.9141 72.2697C62.84 72.2697 61.9609 71.3907 61.9609 70.3165Z" fill="#FC002C"/>
<path d="M61.9609 75.1993C61.9609 74.1251 62.84 73.2461 63.9141 73.2461C64.9883 73.2461 65.8674 74.1251 65.8674 75.1993C65.8674 76.2735 65.0869 77.1525 63.9141 77.1525C62.84 77.1525 61.9609 76.2735 61.9609 75.1993Z" fill="#FC002C"/>
<path d="M66.8438 1.9537C66.8438 0.879539 67.7228 0.000488281 68.797 0.000488281C69.8711 0.000488281 70.7502 0.879539 70.7502 1.9537C70.7502 3.02786 69.9697 3.90691 68.797 3.90691C67.7228 3.90691 66.8438 3.02786 66.8438 1.9537Z" fill="#FC002C"/>
<path d="M66.8438 6.83505C66.8438 5.76089 67.7228 4.88184 68.797 4.88184C69.8711 4.88184 70.7502 5.76089 70.7502 6.83505C70.7502 7.90921 69.9697 8.78826 68.797 8.78826C67.7228 8.78826 66.8438 7.90921 66.8438 6.83505Z" fill="#FC002C"/>
<path d="M66.8438 11.7193C66.8438 10.6452 67.7228 9.76611 68.797 9.76611C69.8711 9.76611 70.7502 10.6452 70.7502 11.7193C70.7502 12.7935 69.9697 13.6725 68.797 13.6725C67.7228 13.6725 66.8438 12.7935 66.8438 11.7193Z" fill="#0F45DB"/>
<path d="M66.8438 16.6031C66.8438 15.529 67.7228 14.6499 68.797 14.6499C69.8711 14.6499 70.7502 15.529 70.7502 16.6031C70.7502 17.6773 69.9697 18.5563 68.797 18.5563C67.7228 18.5563 66.8438 17.6773 66.8438 16.6031Z" fill="#0F45DB"/>
<path d="M66.8438 31.252C66.8438 30.1779 67.7228 29.2988 68.797 29.2988C69.8711 29.2988 70.7502 30.1779 70.7502 31.252C70.7502 32.3262 69.9697 33.2053 68.797 33.2053C67.7228 33.2053 66.8438 32.3262 66.8438 31.252Z" fill="#FC002C"/>
<path d="M66.8438 36.1358C66.8438 35.0617 67.7228 34.1826 68.797 34.1826C69.8711 34.1826 70.7502 35.0617 70.7502 36.1358C70.7502 37.21 69.9697 38.089 68.797 38.089C67.7228 38.089 66.8438 37.21 66.8438 36.1358Z" fill="#FC002C"/>
<path d="M66.8438 41.0172C66.8438 39.943 67.7228 39.064 68.797 39.064C69.8711 39.064 70.7502 39.943 70.7502 41.0172C70.7502 42.0913 69.9697 42.9704 68.797 42.9704C67.7228 42.9704 66.8438 42.0913 66.8438 41.0172Z" fill="#FC002C"/>
<path d="M66.8438 45.9015C66.8438 44.8273 67.7228 43.9482 68.797 43.9482C69.8711 43.9482 70.7502 44.8273 70.7502 45.9015C70.7502 46.9756 69.9697 47.8547 68.797 47.8547C67.7228 47.8547 66.8438 46.9756 66.8438 45.9015Z" fill="#FC002C"/>
<path d="M66.8438 60.5499C66.8438 59.4757 67.7228 58.5967 68.797 58.5967C69.8711 58.5967 70.7502 59.4757 70.7502 60.5499C70.7502 61.6241 69.9697 62.5031 68.797 62.5031C67.7228 62.5031 66.8438 61.6241 66.8438 60.5499Z" fill="#FC002C"/>
<path d="M66.8438 65.4342C66.8438 64.36 67.7228 63.481 68.797 63.481C69.8711 63.481 70.7502 64.36 70.7502 65.4342C70.7502 66.5083 69.9697 67.3874 68.797 67.3874C67.7228 67.3874 66.8438 66.5083 66.8438 65.4342Z" fill="#FC002C"/>
<path d="M66.8438 70.3165C66.8438 69.2423 67.7228 68.3633 68.797 68.3633C69.8711 68.3633 70.7502 69.2423 70.7502 70.3165C70.7502 71.3907 69.9697 72.2697 68.797 72.2697C67.7228 72.2697 66.8438 71.3907 66.8438 70.3165Z" fill="#FC002C"/>
<path d="M66.8438 75.1993C66.8438 74.1251 67.7228 73.2461 68.797 73.2461C69.8711 73.2461 70.7502 74.1251 70.7502 75.1993C70.7502 76.2735 69.9697 77.1525 68.797 77.1525C67.7228 77.1525 66.8438 76.2735 66.8438 75.1993Z" fill="#FC002C"/>
<path d="M71.7266 1.9537C71.7266 0.879539 72.6056 0.000488281 73.6798 0.000488281C74.7539 0.000488281 75.633 0.879539 75.633 1.9537C75.633 3.02786 74.8525 3.90691 73.6798 3.90691C72.6056 3.90691 71.7266 3.02786 71.7266 1.9537Z" fill="#FC002C"/>
<path d="M71.7266 6.83505C71.7266 5.76089 72.6056 4.88184 73.6798 4.88184C74.7539 4.88184 75.633 5.76089 75.633 6.83505C75.633 7.90921 74.8525 8.78826 73.6798 8.78826C72.6056 8.78826 71.7266 7.90921 71.7266 6.83505Z" fill="#FC002C"/>
<path d="M71.7266 11.7193C71.7266 10.6452 72.6056 9.76611 73.6798 9.76611C74.7539 9.76611 75.633 10.6452 75.633 11.7193C75.633 12.7935 74.8525 13.6725 73.6798 13.6725C72.6056 13.6725 71.7266 12.7935 71.7266 11.7193Z" fill="#0F45DB"/>
<path d="M71.7266 16.6031C71.7266 15.529 72.6056 14.6499 73.6798 14.6499C74.7539 14.6499 75.633 15.529 75.633 16.6031C75.633 17.6773 74.8525 18.5563 73.6798 18.5563C72.6056 18.5563 71.7266 17.6773 71.7266 16.6031Z" fill="#0F45DB"/>
<path d="M71.7266 31.252C71.7266 30.1779 72.6056 29.2988 73.6798 29.2988C74.7539 29.2988 75.633 30.1779 75.633 31.252C75.633 32.3262 74.8525 33.2053 73.6798 33.2053C72.6056 33.2053 71.7266 32.3262 71.7266 31.252Z" fill="#FC002C"/>
<path d="M71.7266 36.1358C71.7266 35.0617 72.6056 34.1826 73.6798 34.1826C74.7539 34.1826 75.633 35.0617 75.633 36.1358C75.633 37.21 74.8525 38.089 73.6798 38.089C72.6056 38.089 71.7266 37.21 71.7266 36.1358Z" fill="#FC002C"/>
<path d="M71.7266 41.0172C71.7266 39.943 72.6056 39.064 73.6798 39.064C74.7539 39.064 75.633 39.943 75.633 41.0172C75.633 42.0913 74.8525 42.9704 73.6798 42.9704C72.6056 42.9704 71.7266 42.0913 71.7266 41.0172Z" fill="#FC002C"/>
<path d="M71.7266 45.9015C71.7266 44.8273 72.6056 43.9482 73.6798 43.9482C74.7539 43.9482 75.633 44.8273 75.633 45.9015C75.633 46.9756 74.8525 47.8547 73.6798 47.8547C72.6056 47.8547 71.7266 46.9756 71.7266 45.9015Z" fill="#FC002C"/>
<path d="M71.7266 50.7838C71.7266 49.7096 72.6056 48.8306 73.6798 48.8306C74.7539 48.8306 75.633 49.7096 75.633 50.7838C75.633 51.8579 74.8525 52.737 73.6798 52.737C72.6056 52.737 71.7266 51.8579 71.7266 50.7838Z" fill="#FC002C"/>
<path d="M71.7266 55.6656C71.7266 54.5915 72.6056 53.7124 73.6798 53.7124C74.7539 53.7124 75.633 54.5915 75.633 55.6656C75.633 56.7398 74.8525 57.6188 73.6798 57.6188C72.6056 57.6188 71.7266 56.7398 71.7266 55.6656Z" fill="#FC002C"/>
<path d="M71.7266 60.5499C71.7266 59.4757 72.6056 58.5967 73.6798 58.5967C74.7539 58.5967 75.633 59.4757 75.633 60.5499C75.633 61.6241 74.8525 62.5031 73.6798 62.5031C72.6056 62.5031 71.7266 61.6241 71.7266 60.5499Z" fill="#FC002C"/>
<path d="M71.7266 65.4342C71.7266 64.36 72.6056 63.481 73.6798 63.481C74.7539 63.481 75.633 64.36 75.633 65.4342C75.633 66.5083 74.8525 67.3874 73.6798 67.3874C72.6056 67.3874 71.7266 66.5083 71.7266 65.4342Z" fill="#FC002C"/>
<path d="M71.7266 70.3165C71.7266 69.2423 72.6056 68.3633 73.6798 68.3633C74.7539 68.3633 75.633 69.2423 75.633 70.3165C75.633 71.3907 74.8525 72.2697 73.6798 72.2697C72.6056 72.2697 71.7266 71.3907 71.7266 70.3165Z" fill="#FC002C"/>
<path d="M71.7266 75.1993C71.7266 74.1251 72.6056 73.2461 73.6798 73.2461C74.7539 73.2461 75.633 74.1251 75.633 75.1993C75.633 76.2735 74.8525 77.1525 73.6798 77.1525C72.6056 77.1525 71.7266 76.2735 71.7266 75.1993Z" fill="#FC002C"/>
<path d="M76.6094 1.9537C76.6094 0.879539 77.4884 0.000488281 78.5626 0.000488281C79.6367 0.000488281 80.5158 0.879539 80.5158 1.9537C80.5158 3.02786 79.7354 3.90691 78.5626 3.90691C77.4884 3.90691 76.6094 3.02786 76.6094 1.9537Z" fill="#FC002C"/>
<path d="M76.6094 6.83505C76.6094 5.76089 77.4884 4.88184 78.5626 4.88184C79.6367 4.88184 80.5158 5.76089 80.5158 6.83505C80.5158 7.90921 79.7354 8.78826 78.5626 8.78826C77.4884 8.78826 76.6094 7.90921 76.6094 6.83505Z" fill="#FC002C"/>
<path d="M76.6094 11.7193C76.6094 10.6452 77.4884 9.76611 78.5626 9.76611C79.6367 9.76611 80.5158 10.6452 80.5158 11.7193C80.5158 12.7935 79.7354 13.6725 78.5626 13.6725C77.4884 13.6725 76.6094 12.7935 76.6094 11.7193Z" fill="#0F45DB"/>
<path d="M76.6094 16.6031C76.6094 15.529 77.4884 14.6499 78.5626 14.6499C79.6367 14.6499 80.5158 15.529 80.5158 16.6031C80.5158 17.6773 79.7354 18.5563 78.5626 18.5563C77.4884 18.5563 76.6094 17.6773 76.6094 16.6031Z" fill="#0F45DB"/>
<path d="M76.6094 31.252C76.6094 30.1779 77.4884 29.2988 78.5626 29.2988C79.6367 29.2988 80.5158 30.1779 80.5158 31.252C80.5158 32.3262 79.7354 33.2053 78.5626 33.2053C77.4884 33.2053 76.6094 32.3262 76.6094 31.252Z" fill="#0F45DB"/>
<path d="M76.6094 36.1358C76.6094 35.0617 77.4884 34.1826 78.5626 34.1826C79.6367 34.1826 80.5158 35.0617 80.5158 36.1358C80.5158 37.21 79.7354 38.089 78.5626 38.089C77.4884 38.089 76.6094 37.21 76.6094 36.1358Z" fill="#0F45DB"/>
<path d="M76.6094 41.0172C76.6094 39.943 77.4884 39.064 78.5626 39.064C79.6367 39.064 80.5158 39.943 80.5158 41.0172C80.5158 42.0913 79.7354 42.9704 78.5626 42.9704C77.4884 42.9704 76.6094 42.0913 76.6094 41.0172Z" fill="#0F45DB"/>
<path d="M76.6094 45.9015C76.6094 44.8273 77.4884 43.9482 78.5626 43.9482C79.6367 43.9482 80.5158 44.8273 80.5158 45.9015C80.5158 46.9756 79.7354 47.8547 78.5626 47.8547C77.4884 47.8547 76.6094 46.9756 76.6094 45.9015Z" fill="#FC002C"/>
<path d="M76.6094 50.7838C76.6094 49.7096 77.4884 48.8306 78.5626 48.8306C79.6367 48.8306 80.5158 49.7096 80.5158 50.7838C80.5158 51.8579 79.7354 52.737 78.5626 52.737C77.4884 52.737 76.6094 51.8579 76.6094 50.7838Z" fill="#FC002C"/>
<path d="M76.6094 55.6656C76.6094 54.5915 77.4884 53.7124 78.5626 53.7124C79.6367 53.7124 80.5158 54.5915 80.5158 55.6656C80.5158 56.7398 79.7354 57.6188 78.5626 57.6188C77.4884 57.6188 76.6094 56.7398 76.6094 55.6656Z" fill="#FC002C"/>
<path d="M76.6094 60.5499C76.6094 59.4757 77.4884 58.5967 78.5626 58.5967C79.6367 58.5967 80.5158 59.4757 80.5158 60.5499C80.5158 61.6241 79.7354 62.5031 78.5626 62.5031C77.4884 62.5031 76.6094 61.6241 76.6094 60.5499Z" fill="#FC002C"/>
<path d="M76.6094 65.4342C76.6094 64.36 77.4884 63.481 78.5626 63.481C79.6367 63.481 80.5158 64.36 80.5158 65.4342C80.5158 66.5083 79.7354 67.3874 78.5626 67.3874C77.4884 67.3874 76.6094 66.5083 76.6094 65.4342Z" fill="#FC002C"/>
<path d="M76.6094 70.3165C76.6094 69.2423 77.4884 68.3633 78.5626 68.3633C79.6367 68.3633 80.5158 69.2423 80.5158 70.3165C80.5158 71.3907 79.7354 72.2697 78.5626 72.2697C77.4884 72.2697 76.6094 71.3907 76.6094 70.3165Z" fill="#FC002C"/>
<path d="M76.6094 75.1993C76.6094 74.1251 77.4884 73.2461 78.5626 73.2461C79.6367 73.2461 80.5158 74.1251 80.5158 75.1993C80.5158 76.2735 79.7354 77.1525 78.5626 77.1525C77.4884 77.1525 76.6094 76.2735 76.6094 75.1993Z" fill="#FC002C"/>
<path d="M81.4922 1.9537C81.4922 0.879539 82.3712 0.000488281 83.4454 0.000488281C84.5196 0.000488281 85.3986 0.879539 85.3986 1.9537C85.3986 3.02786 84.6182 3.90691 83.4454 3.90691C82.3712 3.90691 81.4922 3.02786 81.4922 1.9537Z" fill="#FC002C"/>
<path d="M81.4922 6.83505C81.4922 5.76089 82.3712 4.88184 83.4454 4.88184C84.5196 4.88184 85.3986 5.76089 85.3986 6.83505C85.3986 7.90921 84.6182 8.78826 83.4454 8.78826C82.3712 8.78826 81.4922 7.90921 81.4922 6.83505Z" fill="#FC002C"/>
<path d="M81.4922 11.7193C81.4922 10.6452 82.3712 9.76611 83.4454 9.76611C84.5196 9.76611 85.3986 10.6452 85.3986 11.7193C85.3986 12.7935 84.6182 13.6725 83.4454 13.6725C82.3712 13.6725 81.4922 12.7935 81.4922 11.7193Z" fill="#0F45DB"/>
<path d="M81.4922 16.6031C81.4922 15.529 82.3712 14.6499 83.4454 14.6499C84.5196 14.6499 85.3986 15.529 85.3986 16.6031C85.3986 17.6773 84.6182 18.5563 83.4454 18.5563C82.3712 18.5563 81.4922 17.6773 81.4922 16.6031Z" fill="#0F45DB"/>
<path d="M81.4922 31.252C81.4922 30.1779 82.3712 29.2988 83.4454 29.2988C84.5196 29.2988 85.3986 30.1779 85.3986 31.252C85.3986 32.3262 84.6182 33.2053 83.4454 33.2053C82.3712 33.2053 81.4922 32.3262 81.4922 31.252Z" fill="#0F45DB"/>
<path d="M81.4922 36.1358C81.4922 35.0617 82.3712 34.1826 83.4454 34.1826C84.5196 34.1826 85.3986 35.0617 85.3986 36.1358C85.3986 37.21 84.6182 38.089 83.4454 38.089C82.3712 38.089 81.4922 37.21 81.4922 36.1358Z" fill="#0F45DB"/>
<path d="M81.4922 41.0172C81.4922 39.943 82.3712 39.064 83.4454 39.064C84.5196 39.064 85.3986 39.943 85.3986 41.0172C85.3986 42.0913 84.6182 42.9704 83.4454 42.9704C82.3712 42.9704 81.4922 42.0913 81.4922 41.0172Z" fill="#0F45DB"/>
<path d="M81.4922 45.9015C81.4922 44.8273 82.3712 43.9482 83.4454 43.9482C84.5196 43.9482 85.3986 44.8273 85.3986 45.9015C85.3986 46.9756 84.6182 47.8547 83.4454 47.8547C82.3712 47.8547 81.4922 46.9756 81.4922 45.9015Z" fill="#FC002C"/>
<path d="M81.4922 50.7838C81.4922 49.7096 82.3712 48.8306 83.4454 48.8306C84.5196 48.8306 85.3986 49.7096 85.3986 50.7838C85.3986 51.8579 84.6182 52.737 83.4454 52.737C82.3712 52.737 81.4922 51.8579 81.4922 50.7838Z" fill="#FC002C"/>
<path d="M81.4922 55.6656C81.4922 54.5915 82.3712 53.7124 83.4454 53.7124C84.5196 53.7124 85.3986 54.5915 85.3986 55.6656C85.3986 56.7398 84.6182 57.6188 83.4454 57.6188C82.3712 57.6188 81.4922 56.7398 81.4922 55.6656Z" fill="#FC002C"/>
<path d="M81.4922 60.5499C81.4922 59.4757 82.3712 58.5967 83.4454 58.5967C84.5196 58.5967 85.3986 59.4757 85.3986 60.5499C85.3986 61.6241 84.6182 62.5031 83.4454 62.5031C82.3712 62.5031 81.4922 61.6241 81.4922 60.5499Z" fill="#FC002C"/>
<path d="M81.4922 65.4342C81.4922 64.36 82.3712 63.481 83.4454 63.481C84.5196 63.481 85.3986 64.36 85.3986 65.4342C85.3986 66.5083 84.6182 67.3874 83.4454 67.3874C82.3712 67.3874 81.4922 66.5083 81.4922 65.4342Z" fill="#FC002C"/>
<path d="M81.4922 70.3165C81.4922 69.2423 82.3712 68.3633 83.4454 68.3633C84.5196 68.3633 85.3986 69.2423 85.3986 70.3165C85.3986 71.3907 84.6182 72.2697 83.4454 72.2697C82.3712 72.2697 81.4922 71.3907 81.4922 70.3165Z" fill="#FC002C"/>
<path d="M81.4922 75.1993C81.4922 74.1251 82.3712 73.2461 83.4454 73.2461C84.5196 73.2461 85.3986 74.1251 85.3986 75.1993C85.3986 76.2735 84.6182 77.1525 83.4454 77.1525C82.3712 77.1525 81.4922 76.2735 81.4922 75.1993Z" fill="#FC002C"/>
<path d="M86.3672 1.9537C86.3672 0.879539 87.2462 0.000488281 88.3204 0.000488281C89.3946 0.000488281 90.2736 0.879539 90.2736 1.9537C90.2736 3.02786 89.3946 3.90691 88.3204 3.90691C87.2462 3.90691 86.3672 3.02786 86.3672 1.9537Z" fill="#0F45DB"/>
<path d="M86.3672 6.83505C86.3672 5.76089 87.2462 4.88184 88.3204 4.88184C89.3946 4.88184 90.2736 5.76089 90.2736 6.83505C90.2736 7.90921 89.4932 8.78826 88.3204 8.78826C87.2462 8.78826 86.3672 7.90921 86.3672 6.83505Z" fill="#0F45DB"/>
<path d="M86.3672 11.7193C86.3672 10.6452 87.2462 9.76611 88.3204 9.76611C89.3946 9.76611 90.2736 10.6452 90.2736 11.7193C90.2736 12.7935 89.4932 13.6725 88.3204 13.6725C87.2462 13.6725 86.3672 12.7935 86.3672 11.7193Z" fill="#0F45DB"/>
<path d="M86.3672 16.6031C86.3672 15.529 87.2462 14.6499 88.3204 14.6499C89.3946 14.6499 90.2736 15.529 90.2736 16.6031C90.2736 17.6773 89.4932 18.5563 88.3204 18.5563C87.2462 18.5563 86.3672 17.6773 86.3672 16.6031Z" fill="#0F45DB"/>
<path d="M86.3672 36.1358C86.3672 35.0617 87.2462 34.1826 88.3204 34.1826C89.3946 34.1826 90.2736 35.0617 90.2736 36.1358C90.2736 37.21 89.4932 38.089 88.3204 38.089C87.2462 38.089 86.3672 37.21 86.3672 36.1358Z" fill="#0F45DB"/>
<path d="M86.3672 41.0172C86.3672 39.943 87.2462 39.064 88.3204 39.064C89.3946 39.064 90.2736 39.943 90.2736 41.0172C90.2736 42.0913 89.4932 42.9704 88.3204 42.9704C87.2462 42.9704 86.3672 42.0913 86.3672 41.0172Z" fill="#0F45DB"/>
<path d="M86.3672 45.9015C86.3672 44.8273 87.2462 43.9482 88.3204 43.9482C89.3946 43.9482 90.2736 44.8273 90.2736 45.9015C90.2736 46.9756 89.4932 47.8547 88.3204 47.8547C87.2462 47.8547 86.3672 46.9756 86.3672 45.9015Z" fill="#FC002C"/>
<path d="M86.3672 50.7838C86.3672 49.7096 87.2462 48.8306 88.3204 48.8306C89.3946 48.8306 90.2736 49.7096 90.2736 50.7838C90.2736 51.8579 89.4932 52.737 88.3204 52.737C87.2462 52.737 86.3672 51.8579 86.3672 50.7838Z" fill="#FC002C"/>
<path d="M86.3672 55.6656C86.3672 54.5915 87.2462 53.7124 88.3204 53.7124C89.3946 53.7124 90.2736 54.5915 90.2736 55.6656C90.2736 56.7398 89.4932 57.6188 88.3204 57.6188C87.2462 57.6188 86.3672 56.7398 86.3672 55.6656Z" fill="#FC002C"/>
<path d="M86.3672 60.5499C86.3672 59.4757 87.2462 58.5967 88.3204 58.5967C89.3946 58.5967 90.2736 59.4757 90.2736 60.5499C90.2736 61.6241 89.4932 62.5031 88.3204 62.5031C87.2462 62.5031 86.3672 61.6241 86.3672 60.5499Z" fill="#FC002C"/>
<path d="M86.3672 65.4342C86.3672 64.36 87.2462 63.481 88.3204 63.481C89.3946 63.481 90.2736 64.36 90.2736 65.4342C90.2736 66.5083 89.4932 67.3874 88.3204 67.3874C87.2462 67.3874 86.3672 66.5083 86.3672 65.4342Z" fill="#FC002C"/>
<path d="M86.3672 70.3165C86.3672 69.2423 87.2462 68.3633 88.3204 68.3633C89.3946 68.3633 90.2736 69.2423 90.2736 70.3165C90.2736 71.3907 89.4932 72.2697 88.3204 72.2697C87.2462 72.2697 86.3672 71.3907 86.3672 70.3165Z" fill="#FC002C"/>
</g>
<defs>
<clipPath id="clip0_8625_191961">
<rect width="90.2757" height="77.1529" fill="white"/>
</clipPath>
</defs>
</svg>
